# xmcd
#
# Track frame offsets:
#	150
#	20477
#	38929
#	55599
#	73226
#	92503
#
# Disc length: 1412 seconds
#
# Revision: 1
# Processed by: cddbd v1.5.2PL0 Copyright (c) Steve Scherf et al.
# Submitted via: audiograbber 1.83.01
#
DISCID=48058206
DTITLE=Bråtagata Blues Band - Somedays Crying, Somedays Laughing
DYEAR=1997
DGENRE=Blues
TTITLE0=Looking for you
TTITLE1=Worried man blues
TTITLE2=Tromsø
TTITLE3=Honey you know
TTITLE4=Help me
TTITLE5=Somedays Crying, Somedays Laughing
EXTD=
EXTT0=
EXTT1=
EXTT2=
EXTT3=
EXTT4=
EXTT5=
PLAYORDER=
